<svg width="331" height="100" viewBox="0 0 331 100" fill="none" xmlns="http://www.w3.org/2000/svg">
<path d="M117.545 56.2677C115.797 54.5763 113.798 54.0118 111.451 54.0118C108.553 54.0118 106.955 54.9342 106.955 56.5233C106.955 58.1657 108.404 59.0859 111.55 59.2925C116.196 59.5993 122.089 60.675 122.089 67.3915C122.089 71.85 118.544 75.695 111.501 75.695C107.604 75.695 103.708 75.0304 100.113 71.1854L103.11 66.7248C104.858 68.725 108.854 70.2098 111.6 70.2609C113.898 70.3141 116.047 69.0829 116.047 67.236C116.047 65.4935 114.647 64.7757 111.152 64.5712C106.506 64.2112 100.962 62.4708 100.962 56.7299C100.962 50.8868 106.857 48.8354 111.351 48.8354C115.198 48.8354 118.095 49.6044 120.941 52.1671L117.545 56.2677Z" fill="#2C2C2C"/>
<path fill-rule="evenodd" clip-rule="evenodd" d="M137.936 75.695C146.312 75.695 151.39 69.6842 151.39 62.2641C151.39 54.8962 146.103 48.8354 137.883 48.8354C129.661 48.8354 124.531 54.8962 124.531 62.2641C124.531 69.6842 129.559 75.695 137.936 75.695ZM137.936 69.8402C133.275 69.8402 130.919 66.1834 130.919 62.2638C130.919 58.3985 133.327 54.6352 137.936 54.6352C142.228 54.6352 144.95 58.3985 144.95 62.2638C144.95 66.1834 142.594 69.8402 137.936 69.8402Z" fill="#2C2C2C"/>
<path d="M175.808 71.6817C173.036 74.5639 170.12 75.695 166.57 75.695C159.617 75.695 153.832 71.2712 153.832 62.2652C153.832 53.2614 159.617 48.8354 166.57 48.8354C169.973 48.8354 172.599 49.866 175.224 52.5922L171.48 56.7595C170.072 55.4231 168.32 54.7539 166.667 54.7539C162.68 54.7539 159.763 57.8392 159.763 62.2652C159.763 67.1017 162.874 69.6761 166.57 69.6761C168.467 69.6761 170.363 69.1095 171.822 67.5636L175.808 71.6817Z" fill="#2C2C2C"/>
<path fill-rule="evenodd" clip-rule="evenodd" d="M186.093 43.277C186.093 48.1463 178.717 48.1463 178.717 43.277C178.717 38.4077 186.093 38.4077 186.093 43.277ZM185.532 75.6706H179.282V50.2994H185.532V75.6706Z" fill="#2C2C2C"/>
<path fill-rule="evenodd" clip-rule="evenodd" d="M217.186 50.4014H211.194L210.987 53.8883C209.555 51.3748 206.328 49.7858 202.947 49.7858C195.569 49.7368 189.781 54.2973 189.781 63.0113C189.781 71.8788 195.314 76.4904 202.792 76.4414C205.61 76.3881 209.555 74.9525 210.987 71.981L211.296 75.6703H217.186V50.4014ZM203.509 70.6986C199.36 70.6986 196.031 67.8294 196.031 63.0112C196.031 58.193 199.36 55.3728 203.509 55.3728C213.344 55.3728 213.344 70.6986 203.509 70.6986Z" fill="#2C2C2C"/>
<path d="M222.463 75.6704H228.662V39.8428H222.463V75.6704Z" fill="#2C2C2C"/>
<path d="M250.637 57.1161C248.845 55.4248 246.795 54.8604 244.387 54.8604C241.415 54.8604 239.776 55.7827 239.776 57.3717C239.776 59.014 241.262 59.9342 244.489 60.1408C249.253 60.4475 255.297 61.5232 255.297 68.2393C255.297 72.6975 251.661 76.5423 244.438 76.5423C240.442 76.5423 236.447 75.8777 232.76 72.0329L235.834 67.5726C237.626 69.5727 241.724 71.0574 244.54 71.1085C246.897 71.1617 249.1 69.9306 249.1 68.0838C249.1 66.3414 247.665 65.6236 244.08 65.4191C239.316 65.0591 233.631 63.3189 233.631 57.5783C233.631 51.7356 239.676 49.6843 244.285 49.6843C248.229 49.6843 251.201 50.4533 254.12 53.0157L250.637 57.1161Z" fill="#2C2C2C"/>
<path d="M268.105 43.2771V50.4533H275.07V55.8359H268.054V66.7525C268.054 69.1616 269.386 70.3395 271.332 70.3395C272.305 70.3395 273.431 70.0349 274.355 69.5727L276.096 74.9021C274.304 75.62 272.818 75.9267 270.921 75.9799C265.442 76.1823 261.855 73.0554 261.855 66.7525V55.8359H257.142V50.4533H261.855V43.9417L268.105 43.2771Z" fill="#2C2C2C"/>
<path fill-rule="evenodd" clip-rule="evenodd" d="M305.753 50.4014H299.761L299.555 53.8883C298.122 51.3748 294.895 49.7858 291.514 49.7858C284.136 49.7368 278.348 54.2973 278.348 63.0113C278.348 71.8788 283.881 76.4904 291.359 76.4414C294.177 76.3881 298.122 74.9525 299.555 71.981L299.863 75.6703H305.753V50.4014ZM292.076 70.6986C287.928 70.6986 284.598 67.8294 284.598 63.0112C284.598 58.193 287.928 55.3728 292.076 55.3728C301.911 55.3728 301.911 70.6986 292.076 70.6986Z" fill="#2C2C2C"/>
<path d="M316.819 50.4012L317.281 53.3236C319.226 50.1967 321.838 49.7366 324.401 49.7366C327.013 49.7366 329.523 50.7611 330.905 52.1435L328.088 57.5773C326.807 56.4995 325.63 55.9372 323.58 55.9372C320.301 55.9372 317.281 57.6796 317.281 62.3423V75.6701H311.031V50.4012H316.819Z" fill="#2C2C2C"/>
<path fill-rule="evenodd" clip-rule="evenodd" d="M88.7125 87.4501L84.0271 91.1244L87.0499 93.7934L90.9178 90.7517C91.5139 90.3704 94.5196 88.3042 95.1136 85.058C95.4478 83.2304 94.9454 81.3879 93.6426 79.7052L90.0642 75.7262L90.1025 75.6964L89.845 75.362C89.63 75.0851 89.3958 74.8103 89.151 74.5589L79.3184 62.6732L74.6309 56.611L81.8133 53.286L94.7197 47.7393C99.2092 45.6157 99.618 41.4109 99.1922 39.4342L94.5218 25.9211C94.0364 24.6026 93.1211 23.6079 91.8779 23.0434C91.0881 22.6834 90.1643 22.5002 89.134 22.5002C87.4012 22.5002 85.8855 23.0093 85.4896 23.1584L73.1302 26.7092L64.992 29.1098L64.6962 31.0247L64.7174 31.2718C64.7223 31.3 64.7273 31.3281 64.7322 31.3563C64.8083 31.7929 64.8851 32.233 64.9431 32.7032L65.0027 33.1932L74.2541 30.5817L86.8158 26.967C87.2564 26.803 88.2846 26.5367 89.1616 26.5367C89.598 26.5367 89.9514 26.6006 90.2154 26.7199C90.4751 26.837 90.6241 27.0032 90.7263 27.2822L95.2753 40.38C95.3392 40.7868 95.5287 42.8785 93.0381 44.0714L80.172 49.6031L72.3851 53.2008C70.3926 49.8801 68.1362 47.9012 65.3092 46.9896C64.6004 46.7574 63.8638 46.6402 63.1188 46.6402C61.3753 46.6402 59.7554 47.2856 58.5548 48.4572C57.9268 49.0706 57.3946 49.8801 57.0051 50.8684L56.8369 51.3881C56.5942 52.2806 56.5346 53.2519 56.6687 54.121C57.0434 56.5173 58.7762 58.5196 61.1901 59.3482C62.2949 59.7295 63.4743 59.9233 64.6919 59.9233C66.612 59.9233 68.6684 59.4462 70.9653 58.4642L76.153 65.176L85.0723 75.9584L84.9936 76.0287L90.5517 82.1973C91.1179 82.9471 91.3329 83.6437 91.2095 84.3274C90.954 85.7631 89.3064 87.0773 88.7125 87.4501ZM61.2733 51.2494C61.7352 50.8021 62.4122 50.5444 63.1359 50.5444C63.4723 50.5444 63.8001 50.5955 64.113 50.6956C66.4802 51.4646 67.9958 53.4668 68.9665 55.075C67.353 55.7247 65.9906 56.0272 64.7112 56.0272C63.9257 56.0272 63.1679 55.9058 62.459 55.6629C61.4287 55.3051 60.6666 54.4637 60.5197 53.518C60.4623 53.1537 60.507 52.6872 60.6368 52.2996C60.7667 51.9055 61.0051 51.5114 61.2733 51.2494Z" fill="#FF674F"/>
<path fill-rule="evenodd" clip-rule="evenodd" d="M94.5403 47.3561L82.2001 52.66L81.6466 52.8985L73.9704 56.4494L78.9857 62.9311L88.8268 74.8318C89.0822 75.0917 89.3058 75.3558 89.5101 75.622L89.4463 75.671L93.3291 79.9887C94.5382 81.5521 95.0107 83.2796 94.7 84.9815C94.138 88.0382 91.3046 90.0021 90.6916 90.3961L87.0663 93.244L84.6885 91.1438L88.9737 87.7847C89.6102 87.3864 91.3408 85.9954 91.6261 84.4043C91.7687 83.5991 91.5303 82.7918 90.8895 81.9419L85.5911 76.0608L85.6571 76.0033L76.4802 64.9057L71.0987 57.9468C68.7295 58.9948 66.6305 59.5017 64.6913 59.5017C63.5268 59.5017 62.3922 59.3164 61.3279 58.95C59.0629 58.1704 57.4366 56.2917 57.0874 54.0552C56.9597 53.2394 57.0172 52.3341 57.245 51.4991L57.262 51.4331L57.2748 51.3947C57.2908 51.3396 57.3097 51.283 57.3279 51.2286C57.3315 51.2179 57.3351 51.2072 57.3386 51.1966C57.3437 51.1819 57.3485 51.1676 57.3533 51.1537C57.3705 51.1029 57.3862 51.0564 57.4046 51.0113L57.4451 50.8899H57.4493C57.7665 50.089 58.2625 49.3328 58.85 48.7598C59.974 47.6629 61.4875 47.0622 63.1181 47.0622C63.8121 47.0622 64.5039 47.1708 65.1787 47.3923C67.9929 48.2976 70.2302 50.3212 72.2142 53.7463L80.3481 49.9867L93.2056 44.4614C95.9878 43.1301 95.7643 40.7742 95.6941 40.3163L91.1258 27.1418C90.9789 26.7499 90.7533 26.5007 90.3914 26.3345C90.07 26.1897 89.6591 26.1151 89.161 26.1151C88.2222 26.1151 87.1557 26.3899 86.6661 26.5731L86.5469 26.6136L74.1386 30.1772L65.3618 32.6523C65.3071 32.1953 65.2335 31.7719 65.1602 31.3506C65.145 31.2634 65.1299 31.1762 65.1149 31.0888L65.3661 29.438L73.2488 27.1141L85.606 23.5655C86.0062 23.4164 87.4772 22.9243 89.1333 22.9243C90.0998 22.9243 90.964 23.0926 91.7027 23.4291C92.8394 23.9446 93.6803 24.8584 94.1252 26.0683L98.7935 39.5729C99.1831 41.3983 98.785 45.3496 94.5403 47.3561ZM62.3221 56.0632C63.0735 56.3188 63.8761 56.4509 64.7105 56.4509C66.1645 56.4509 67.712 56.0782 69.5789 55.2772C68.5678 53.5242 66.9308 51.1641 64.2443 50.295C63.8825 50.18 63.5099 50.1225 63.1353 50.1225C62.3029 50.1225 61.5196 50.4228 60.981 50.9468C60.6617 51.2557 60.385 51.7115 60.2338 52.1674C60.0848 52.6189 60.0337 53.1493 60.1018 53.5817C60.2743 54.6851 61.1449 55.6564 62.3221 56.0632Z" fill="#FF674F"/>
<path fill-rule="evenodd" clip-rule="evenodd" d="M17.9682 98.3766C19.5115 99.4544 21.0995 99.9997 22.6918 99.9997C24.8078 99.9997 26.5086 99.0177 27.4006 98.0954L32.1477 92.9385C32.8501 92.3868 33.2865 91.8522 33.4164 91.6796L39.3832 85.2021L36.3945 82.4927L24.5353 95.3455C24.0627 95.8077 23.4858 96.042 22.8259 96.042C21.6764 96.042 20.5823 95.354 20.297 95.158L10.6198 87.5537L10.4304 87.4238C9.73639 86.9978 8.22073 85.6835 7.97593 84.3395C7.8482 83.6493 8.06533 82.9485 8.72098 82.1008L14.8624 75.3016L23.19 65.1604L28.3372 58.5039C30.6363 59.4859 32.6883 59.9609 34.6063 59.9609C35.8197 59.9609 36.9969 59.7692 38.1081 59.3837C40.5242 58.5529 42.257 56.5528 42.6316 54.1565C42.7636 53.2938 42.7062 52.3332 42.4294 51.3107L42.3528 51.0828L41.9547 51.2255L42.2229 50.725C41.8866 49.89 41.3608 49.0976 40.7435 48.4948C39.5429 47.3211 37.9229 46.6757 36.1816 46.6757C35.4365 46.6757 34.6979 46.7929 33.989 47.025C31.2153 47.9197 28.9056 49.9411 26.9387 53.2001L19.1113 49.5769L6.31339 44.0813C3.83555 42.897 3.99733 40.7989 4.03565 40.4708L8.59113 27.322C8.70608 27.0131 8.85935 26.8406 9.12331 26.7192C9.38089 26.5978 9.73426 26.5381 10.1728 26.5381C11.0519 26.5381 12.061 26.7958 12.557 26.979L25.0696 30.581L34.3828 33.1456L34.4424 32.662C34.4765 32.3787 34.4935 32.1061 34.5084 31.8398C34.5276 31.5118 34.5467 31.1923 34.5978 30.8983L34.9789 29.3157L26.1893 26.7043L13.881 23.1684C13.3297 22.966 11.8694 22.4995 10.2004 22.4995C9.16802 22.4995 8.24415 22.6827 7.45652 23.0427C6.21334 23.6071 5.29373 24.6125 4.7956 25.9566L0.176262 39.2887L0.120915 39.4995C-0.285673 41.4208 0.12943 45.6171 4.62956 47.7471L17.4701 53.2619L24.7014 56.6103L20.0373 62.6469L11.218 73.3973L5.5215 79.7321C4.23788 81.3893 3.7355 83.2318 4.06971 85.0594C4.66362 88.295 7.66939 90.3697 8.23137 90.7296L17.9682 98.3766ZM34.5873 56.0653C33.3058 56.0653 31.9455 55.7628 30.3319 55.111C31.3048 53.5049 32.8204 51.4984 35.1855 50.7316C35.4984 50.6315 35.8262 50.5804 36.1604 50.5804C36.8863 50.5804 37.5632 50.8381 38.0252 51.2875C38.2913 51.5453 38.5297 51.9394 38.6638 52.3377C38.7915 52.7232 38.8362 53.1897 38.7787 53.5561C38.6319 54.5018 37.8719 55.3432 36.8416 55.6968C36.1349 55.9417 35.377 56.0653 34.5873 56.0653Z" fill="#43B19C"/>
<path fill-rule="evenodd" clip-rule="evenodd" d="M42.0249 51.4331L42.0589 51.5545C42.2825 52.3852 42.3378 53.282 42.2122 54.0914C41.8631 56.3301 40.2346 58.2045 37.9697 58.9841C36.9053 59.3526 35.7749 59.5401 34.6063 59.5401C32.6691 59.5401 30.5723 59.031 28.2052 57.9851L22.8557 64.9014L14.5366 75.032L9.5575 80.5446V80.5425L8.40586 81.8184L8.39096 81.8354L8.29516 81.9419C7.65229 82.794 7.41174 83.6034 7.56075 84.4149C7.85239 86.0146 9.61711 87.4204 10.211 87.7826L10.3579 87.8869L20.0351 95.4891C20.5928 95.8747 23.0515 97.3827 24.8311 95.6467L25.5208 94.897L30.9704 88.9988L30.9725 89.001L36.4221 83.0879L38.785 85.2286L33.1055 91.393C32.9267 91.6273 32.5095 92.1151 31.8857 92.605L27.0897 97.8066C26.3042 98.6224 24.7226 99.5767 22.6918 99.5767C21.3592 99.5767 19.8307 99.1635 18.2108 98.0303L18.1405 97.977L8.49314 90.3961C7.88006 90.0021 5.04672 88.0382 4.48474 84.9815C4.17394 83.2796 4.64865 81.5521 5.85564 79.9887L5.93227 79.8971L11.269 73.9691L11.2839 73.9819L20.3629 62.9141L25.3612 56.4494L17.6467 52.8794L4.79553 47.3583C0.550847 45.3496 0.150646 41.3962 0.533817 39.5878L0.584906 39.4025L5.19573 26.0981C5.65128 24.8669 6.49213 23.9446 7.631 23.427C8.36754 23.0926 9.2318 22.9243 10.2004 22.9243C11.8587 22.9243 13.3254 23.4164 13.7362 23.5655L26.0722 27.1099L34.4743 29.6063L34.1869 30.7992C34.1265 31.133 34.1072 31.4662 34.0874 31.8084C34.0724 32.0688 34.057 32.3345 34.023 32.6097L25.1824 30.1729L12.674 26.5731C12.178 26.3878 11.1115 26.1151 10.1727 26.1151C9.67458 26.1151 9.26161 26.1897 8.94443 26.3345C8.58041 26.5007 8.34838 26.7584 8.19511 27.1738L3.63538 40.3312C3.57364 40.7721 3.36503 43.1407 6.13238 44.4614L18.9452 49.9676L27.1067 53.742C29.0588 50.3872 31.3536 48.3189 34.1188 47.4264C34.7936 47.207 35.4876 47.0984 36.1815 47.0984C37.81 47.0984 39.3256 47.6991 40.4475 48.7939C41.0244 49.3605 41.514 50.0954 41.8312 50.8835L41.8801 50.9985L41.8972 51.0475C41.9163 51.105 41.9355 51.1647 41.9546 51.2243C41.9823 51.2967 42.0036 51.3628 42.0249 51.4331ZM36.9776 56.0958C38.1526 55.6932 39.0254 54.7198 39.1957 53.6185C39.2638 53.1861 39.2149 52.6558 39.0637 52.2063C38.9126 51.7483 38.6359 51.2925 38.3166 50.9837C37.7801 50.4575 36.9946 50.1572 36.1601 50.1572C35.7876 50.1572 35.4151 50.2147 35.0553 50.3319C32.3689 51.2009 30.7319 53.561 29.7207 55.3141C31.5855 56.115 33.1352 56.4877 34.587 56.4877C35.4236 56.4877 36.2261 56.3557 36.9776 56.0958Z" fill="#43B19C"/>
<path fill-rule="evenodd" clip-rule="evenodd" d="M71.817 98.1286C72.6876 99.0317 74.3736 100.001 76.4874 100.001C78.0839 100.001 79.6741 99.4556 81.2345 98.3629L87.7271 93.2614L84.7043 90.5945L78.912 95.1401C78.5991 95.3552 77.49 96.0539 76.3426 96.0539C75.6912 96.0539 75.1505 95.8345 74.7035 95.4L70.2225 90.5413L70.3715 90.4305L69.9777 90.0876C69.8123 89.9443 69.6869 89.8112 69.6227 89.7431C69.5944 89.713 69.578 89.6957 69.5754 89.6957C69.5741 89.6957 69.5736 89.6965 69.5739 89.6977L69.4796 89.5551L58.0292 77.1709L52.205 70.4399C53.9463 68.4653 56.0899 65.4705 56.0495 61.5384C56.0282 58.9823 54.6764 56.701 52.5221 55.5891C51.8282 55.2313 51.0065 54.9948 50.1784 54.9139L50.1742 54.8926H49.129C48.2179 54.9543 47.3046 55.2036 46.5574 55.5912C44.4074 56.701 43.0536 58.9802 43.0301 61.5384C42.9897 65.5322 45.2057 68.5782 47.0024 70.5847L41.3123 77.1602L35.8223 83.1159L38.811 85.8232L44.3031 79.8612L49.6654 73.6669L55.0106 79.8441L65.3626 91.0419L65.3201 91.0823L71.817 98.1286ZM48.3455 59.0548C48.6733 58.8866 49.1182 58.7801 49.5099 58.7801H49.5695C49.9591 58.7801 50.4061 58.8866 50.7361 59.0548C51.5897 59.4979 52.1453 60.4884 52.1538 61.5747C52.1772 64.069 50.7552 66.1394 49.5397 67.5687C48.3221 66.1352 46.9022 64.0605 46.9257 61.5747C46.9342 60.4884 47.4919 59.5 48.3455 59.0548Z" fill="#43B19C"/>
<path fill-rule="evenodd" clip-rule="evenodd" d="M79.1501 95.4899L84.6891 91.1425L87.0668 93.2449L80.9744 98.029C79.3502 99.1664 77.8196 99.5775 76.4871 99.5775C74.4605 99.5775 72.8874 98.6318 72.121 97.8351L65.9222 91.1127L65.9669 91.0722L55.319 79.5571L49.6651 73.0221L43.9856 79.5848L38.7851 85.2294L36.4222 83.0866L41.6249 77.4462L47.5661 70.5767C45.7567 68.6043 43.413 65.5455 43.4513 61.5431C43.4747 59.1426 44.7371 57.0061 46.7508 55.9666C47.4597 55.6003 48.3112 55.3724 49.1584 55.3127L49.2968 55.3042H49.614L49.8418 55.3085L49.8439 55.3106C50.7188 55.3553 51.6001 55.5875 52.3281 55.9666C54.3419 57.0061 55.6063 59.1426 55.6276 61.5431C55.6681 65.488 53.3967 68.4935 51.6427 70.434L57.7117 77.4462L69.1302 89.7984L69.1983 89.8879C69.2004 89.8921 69.3856 90.1328 69.7007 90.4055L69.5964 90.4843L74.3945 95.6859C76.1337 97.3836 78.5902 95.8712 79.1501 95.4899ZM46.504 61.569C46.4763 64.3978 48.1985 66.6982 49.5396 68.2106C50.8828 66.6982 52.6028 64.3956 52.5773 61.5712C52.5666 60.3251 51.9195 59.194 50.9297 58.6807C50.538 58.4783 50.0313 58.359 49.5715 58.359H49.5098C49.0479 58.359 48.5412 58.4783 48.1517 58.6807C47.1618 59.194 46.5125 60.3251 46.504 61.569Z" fill="#43B19C"/>
<path fill-rule="evenodd" clip-rule="evenodd" d="M35.0659 43.0336C36.3602 44.8804 38.4123 45.9838 40.5559 45.9838C40.8178 45.9838 41.0817 45.9689 41.3393 45.9348C42.0993 45.8389 42.8954 45.5769 43.6107 45.1914L43.6277 45.2084L44.0258 44.9464L44.5218 44.595C45.2285 44.0433 45.8458 43.3191 46.2567 42.5544C47.3998 40.4179 47.2231 37.7745 45.7969 35.653C43.5979 32.3833 40.1366 31.1351 37.5885 30.4961L38.1058 22.0227L38.4336 14.0648L38.8487 6.53716C38.8764 6.1218 39.1318 4.03647 41.6182 4.03647L57.8966 4.03221C60.1275 4.03221 60.4681 5.94926 60.517 6.52225L60.93 13.9902L61.26 22.061L61.7751 30.4535C59.2185 31.0882 55.7423 32.3365 53.5348 35.6168C52.1085 37.7362 51.9319 40.3796 53.0771 42.5182C53.4901 43.2892 54.1202 44.0241 54.8546 44.5907L55.0909 44.7654L55.9637 45.3234L55.9722 45.2851C56.6193 45.5982 57.3197 45.8134 57.9924 45.8964C58.2478 45.9305 58.5118 45.9454 58.7757 45.9454C60.9194 45.9454 62.9715 44.8442 64.2657 42.9974C66.7947 39.387 66.469 35.1652 65.9048 31.936L65.2875 21.8587L64.9341 13.2447L64.5425 6.26451C64.3956 4.09824 62.8182 0 57.9157 0H41.467C36.5475 0 34.968 4.12593 34.819 6.31776L34.4891 12.8379H34.4486L34.0782 21.8182L33.4843 31.6314C32.8712 35.0161 32.5008 39.3721 35.0659 43.0336ZM62.3137 34.336C60.5 34.8238 58.1563 35.727 56.7662 37.7931C56.1574 38.6984 56.0574 39.8294 56.5108 40.6772C56.6875 41.0052 57.0047 41.3503 57.341 41.5761C57.6859 41.8125 58.1116 41.9829 58.4841 42.0277C58.5821 42.0447 58.6693 42.0447 58.7587 42.0447C59.6315 42.0447 60.5192 41.5527 61.0748 40.7582C62.5032 38.7197 62.5053 36.2041 62.3137 34.336ZM37.0179 34.3724C36.8241 36.2405 36.8263 38.7518 38.2568 40.7903C38.8124 41.5869 39.7 42.0833 40.575 42.0833C40.6686 42.0833 40.7602 42.079 40.8496 42.0683C41.2242 42.0172 41.65 41.8489 41.9884 41.6168C42.3312 41.3825 42.642 41.0438 42.8229 40.7094C43.2763 39.868 43.1741 38.7348 42.5653 37.8295C41.1774 35.7655 38.8315 34.8623 37.0179 34.3724Z" fill="#FFCC65"/>
<path fill-rule="evenodd" clip-rule="evenodd" d="M64.8646 21.8732L65.484 31.9612C66.0375 35.152 66.359 39.2737 63.9194 42.7542C62.7039 44.4881 60.7817 45.5233 58.7764 45.5233C58.5295 45.5233 58.2847 45.5084 58.0463 45.4786C57.2501 45.3763 56.4178 45.0866 55.694 44.6521L55.6919 44.6564L55.5386 44.5584C55.4975 44.5337 55.4589 44.5064 55.4209 44.4796C55.4097 44.4717 55.3986 44.4639 55.3875 44.4561L55.413 44.3241L55.3406 44.4263C55.3213 44.4118 55.301 44.3972 55.2805 44.3825C55.2559 44.3648 55.2309 44.3469 55.2065 44.3283L55.1086 44.2559V44.2538C54.4253 43.7255 53.8378 43.0439 53.4482 42.3176C52.3796 40.3196 52.5456 37.8423 53.8846 35.8528C56.09 32.5747 59.6705 31.3818 62.2186 30.779L61.6821 22.0373L61.3522 13.975L60.9392 6.49845C60.8988 6.02132 60.5433 3.61222 57.8973 3.61222C57.8462 3.61222 57.6929 3.61435 57.6929 3.61435H41.6252C41.5678 3.61222 41.5146 3.61222 41.4635 3.61222C38.7025 3.61222 38.4449 6.21302 38.4258 6.51123L38.0107 14.0431L37.6828 22.0053L37.1464 30.8238C39.6796 31.4266 43.2473 32.6173 45.4463 35.889C46.7853 37.8785 46.9535 40.3558 45.8848 42.3538C45.5017 43.0652 44.929 43.7404 44.2606 44.2623L44.1627 44.3411L44.1265 44.3646C44.0949 44.3887 44.0621 44.4117 44.0299 44.4345C44.0166 44.4439 44.0033 44.4532 43.9903 44.4625L43.8753 44.388L43.9456 44.4924C43.91 44.5187 43.8733 44.5427 43.8363 44.567C43.8224 44.5761 43.8084 44.5853 43.7944 44.5946L43.6773 44.6692L43.6752 44.667C42.9408 45.1122 42.0957 45.4125 41.2868 45.5148C41.0441 45.5467 40.7993 45.5595 40.5566 45.5595C38.5514 45.5595 36.627 44.5243 35.4115 42.7883C32.9358 39.2567 33.3019 35.0115 33.898 31.7077L34.5004 21.8434L34.8538 13.2614H34.8899L35.2412 6.3387C35.3796 4.28745 36.859 0.421387 41.4677 0.421387C41.5058 0.421387 41.5444 0.421912 41.5832 0.422441C41.6226 0.422977 41.6622 0.423517 41.7019 0.423517H57.6695C57.7504 0.421387 57.8334 0.421387 57.9143 0.421387C62.5081 0.421387 63.9833 4.26402 64.1217 6.29397L64.5006 13.2614H64.5133L64.5517 14.2412V14.2455L64.8646 21.8732ZM61.4203 40.999C60.7859 41.9064 59.7662 42.4687 58.7593 42.4687C58.6487 42.4687 58.538 42.4645 58.4294 42.4474C57.993 42.392 57.4991 42.1982 57.1032 41.9277C56.7073 41.6572 56.3475 41.2652 56.1389 40.8754C55.6131 39.8956 55.7216 38.5899 56.4156 37.5568C57.993 35.2137 60.7114 34.2914 62.6783 33.8058C62.9274 35.8144 63.0424 38.6857 61.4203 40.999ZM42.9151 37.5932C43.609 38.6284 43.7219 39.9299 43.1939 40.9118C42.9832 41.3017 42.6234 41.6936 42.2275 41.9662C41.8337 42.2367 41.3398 42.4306 40.9034 42.486C40.797 42.5009 40.6863 42.5051 40.5735 42.5051C39.5666 42.5051 38.5448 41.9428 37.9104 41.0354C36.2883 38.7221 36.4033 35.8508 36.6545 33.8422C38.6193 34.3278 41.3398 35.2501 42.9151 37.5932Z" fill="#FFCC65"/>
</svg>
